<svg width="1051" height="1160" viewBox="0 0 1051 1160" fill="none" xmlns="http://www.w3.org/2000/svg">
<path opacity="0.2" d="M72.841 257.457C51.1306 266.817 33.4496 276.721 33.4496 276.721C33.4496 276.721 61.9744 356.434 227.039 425.952C212.337 444.455 195.341 559.003 288.624 676.198C292.832 643.966 293.182 625.566 307.765 598.993C372.276 851.533 705.065 781.823 730.751 1103.06C772.951 1030.87 836.51 920.585 802.743 786.86C829.175 788.392 842.126 814.746 842.126 814.746C842.126 814.746 847.073 509.962 609.184 401.883C640.524 381.527 688.838 388.073 688.838 388.073C688.838 388.073 465.145 218.36 258.029 376.852C282.361 394.497 518.507 405.995 658.331 716.044C388.105 306.326 183.618 491.817 72.841 257.457Z" fill="#44A63B" stroke="black" stroke-miterlimit="10"/>
</svg>
