<svg width="1146" height="1077" viewBox="0 0 1146 1077" fill="none" xmlns="http://www.w3.org/2000/svg">
<g clip-path="url(#clip0)">
<path opacity="0.2" d="M1084.15 757.108C1103.37 743.336 1118.54 729.893 1118.54 729.893C1118.54 729.893 1073.68 658.087 897.596 625.336C908.017 604.125 900.217 488.586 784.105 393.958C786.862 426.347 790.44 444.399 781.853 473.469C665.015 240.474 354.721 379.49 261.18 71.1047C235.33 150.622 196.728 271.921 258.214 395.381C232.062 399.515 213.792 376.526 213.792 376.526C213.792 376.526 273.899 675.366 529.354 730.276C503.071 756.842 454.472 760.74 454.472 760.74C454.472 760.74 709.188 878.894 877.779 679.912C850.246 667.856 617.072 706.938 414.398 433.8C765.717 776.534 925.985 551.732 1084.15 757.108Z" fill="#44A63B" stroke="black" stroke-miterlimit="10"/>
</g>
<defs>
<clipPath id="clip0">
<rect width="1081.62" height="494.49" fill="white" transform="translate(320.017 0.00628662) rotate(40.2733)"/>
</clipPath>
</defs>
</svg>
