<svg width="783" height="1179" viewBox="0 0 783 1179" fill="none" xmlns="http://www.w3.org/2000/svg">
<g clip-path="url(#clip0)">
<path opacity="0.2" d="M699.968 1052.29C723.589 1051.28 743.639 1048.33 743.639 1048.33C743.639 1048.33 745.401 963.689 615.959 839.9C636.29 827.853 693.001 726.887 647.619 584.14C632.198 612.755 625.313 629.822 602.215 649.45C631.959 390.504 296.182 337.013 386.687 27.7228C321.53 80.1232 222.833 160.511 206.716 297.489C182.566 286.636 179.859 257.397 179.859 257.397C179.859 257.397 66.5972 540.398 250.336 726.173C213.798 734.021 170.991 710.683 170.991 710.683C170.991 710.683 319.497 948.983 569.502 874.729C553.059 849.569 336.522 754.653 316.4 415.129C422.832 894.257 680.005 793.838 699.968 1052.29Z" fill="#44A63B" stroke="black" stroke-miterlimit="10"/>
</g>
<defs>
<clipPath id="clip0">
<rect width="1081.62" height="494.49" fill="white" transform="translate(474.843 0.423218) rotate(73.4579)"/>
</clipPath>
</defs>
</svg>
