<svg width="1107" height="1123" viewBox="0 0 1107 1123" fill="none" xmlns="http://www.w3.org/2000/svg">
<g clip-path="url(#clip0)">
<path opacity="0.2" d="M303.005 1057.7C315.532 1077.75 327.988 1093.74 327.988 1093.74C327.988 1093.74 402.49 1053.52 446.326 879.864C466.835 891.607 582.636 891.139 684.427 781.254C651.928 781.953 633.686 784.381 605.218 773.971C845.145 672.122 726.057 353.647 1039.75 279.822C962.026 248.989 843.415 202.784 716.31 256.327C713.839 229.966 737.939 213.189 737.939 213.189C737.939 213.189 435.893 254.251 364.916 505.716C340.068 477.803 339.255 429.054 339.255 429.054C339.255 429.054 205.208 675.778 393.115 856.63C406.89 829.916 382.652 594.736 668.076 409.765C303.784 738.675 517.985 912.858 303.005 1057.7Z" fill="#44A63B" stroke="black" stroke-miterlimit="10"/>
</g>
<defs>
<clipPath id="clip0">
<rect width="1081.62" height="494.49" fill="white" transform="translate(1106.98 343.043) rotate(133.904)"/>
</clipPath>
</defs>
</svg>
