<svg width="1080" height="1080" viewBox="0 0 1080 1080" fill="none" xmlns="http://www.w3.org/2000/svg">
<path fill-rule="evenodd" clip-rule="evenodd" d="M570.601 560.799C585.601 520.899 608.601 494.299 627.401 500.099C659.301 431.299 737.101 256.699 747.201 268.399C757.701 279.699 640.701 461.399 633.601 503.899C640.301 506.899 644.401 511.399 647.301 517.399C652.201 527.399 803.901 329.399 828.301 338.199C823.401 364.399 653.201 500.899 653.601 530.899C660.301 555.699 640.901 579.799 623.601 588.599C917.701 538.999 1059.7 585.999 1062.9 701.799C1068 887.099 875.701 1070.9 659.801 962.799C674.901 1029.9 584.201 1081.5 523.801 1067.8C447.801 1050.5 383.601 1024.5 408.401 826.299C310.001 989.199 376.901 1053 287.301 1037.8C256.001 995.199 290.501 941.299 387.101 812.799C386.801 811.899 386.101 812.299 385.801 811.299C262.101 868.299 -18.3987 833.999 15.8013 617.799C25.8013 554.699 72.3013 500.799 128.101 494.799C60.2013 386.699 38.6013 152.999 203.101 38.0989C370.901 -79.2011 559.001 234.799 570.601 560.799Z" fill="url(#paint0_radial)" stroke="black" stroke-miterlimit="10"/>
<path fill-rule="evenodd" clip-rule="evenodd" d="M421.6 363.301C462.3 446.601 498.6 550.801 516.3 622.701C537.8 595.001 547.8 581.601 558.1 569.901C567 458.401 475.4 241.401 414.2 174.701C382.6 199.001 367.1 201.801 341.7 215.401C355.5 236.501 382.1 283.001 421.6 363.301ZM141.3 508.101C89.6998 521.701 59.4998 563.201 46.5998 624.201C31.7998 816.301 303.7 824.801 403.2 784.101C431.5 754.401 442.6 726.801 457.3 699.601C343 686.001 218.7 616.501 141.3 508.101ZM160.9 496.001C264.1 667.801 467.1 683.001 467.1 683.001L505.2 631.701C505.2 631.701 482.4 526.101 427.7 420.501C189.4 369.801 181.2 437.201 160.9 496.001ZM422.9 404.001C395.3 352.001 379.4 306.101 325.8 223.001C238.1 241.101 140.7 237.101 115.5 236.301C102.2 289.601 108.8 431.101 151.2 476.401C178.4 362.601 305.7 375.601 422.9 404.001ZM404.4 164.201C359.8 111.401 298.6 72.2013 221.2 96.3013C162.2 120.401 127.4 186.801 120.4 218.501C185.2 219.201 326.9 225.601 404.4 164.201ZM526.1 759.901C471.8 786.301 452.3 772.201 419.1 820.201C413 955.801 429 986.901 457.2 1020.8C552.4 1078.8 659.5 1011.7 636.7 946.901C615.3 931.901 563.6 893.401 526.1 759.901ZM780.7 723.701C737.5 708.701 680 694.901 599.9 681.501C582.1 708.601 569.7 733.501 536 753.901C567.9 870.001 625.2 901.001 660.2 927.401C721.1 904.901 772.2 813.201 780.7 723.701ZM904.9 755.401C929.5 700.301 944.5 663.201 965.2 636.201C875.5 598.901 717.9 585.501 613.5 600.001C613.5 621.101 616.6 652.801 603.7 670.901C764 692.101 867.2 711.001 904.9 755.401ZM988.5 648.301C925.2 740.001 910.1 798.901 881.5 918.301C939.3 881.401 978.2 819.301 993.4 784.101C1019.2 713.201 1018.7 666.301 988.5 648.301ZM797.9 726.801C797.9 726.801 767.5 920.201 676.2 938.001C725.5 957.601 791.9 989.701 864.3 927.401C875.9 888.301 878.9 831.801 896.3 785.601C855.7 737.601 797.9 726.801 797.9 726.801Z" fill="url(#paint1_radial)"/>
<path d="M421.6 363.301C462.3 446.601 498.6 550.801 516.3 622.701C537.8 595.001 547.8 581.601 558.1 569.901C567 458.401 475.4 241.401 414.2 174.701C382.6 199.001 367.1 201.801 341.7 215.401C355.5 236.501 382.1 283.001 421.6 363.301ZM141.3 508.101C89.6998 521.701 59.4998 563.201 46.5998 624.201C31.7998 816.301 303.7 824.801 403.2 784.101C431.5 754.401 442.6 726.801 457.3 699.601C343 686.001 218.7 616.501 141.3 508.101ZM160.9 496.001C264.1 667.801 467.1 683.001 467.1 683.001L505.2 631.701C505.2 631.701 482.4 526.101 427.7 420.501C189.4 369.801 181.2 437.201 160.9 496.001ZM422.9 404.001C395.3 352.001 379.4 306.101 325.8 223.001C238.1 241.101 140.7 237.101 115.5 236.301C102.2 289.601 108.8 431.101 151.2 476.401C178.4 362.601 305.7 375.601 422.9 404.001ZM404.4 164.201C359.8 111.401 298.6 72.2013 221.2 96.3013C162.2 120.401 127.4 186.801 120.4 218.501C185.2 219.201 326.9 225.601 404.4 164.201ZM526.1 759.901C471.8 786.301 452.3 772.201 419.1 820.201C413 955.801 429 986.901 457.2 1020.8C552.4 1078.8 659.5 1011.7 636.7 946.901C615.3 931.901 563.6 893.401 526.1 759.901ZM780.7 723.701C737.5 708.701 680 694.901 599.9 681.501C582.1 708.601 569.7 733.501 536 753.901C567.9 870.001 625.2 901.001 660.2 927.401C721.1 904.901 772.2 813.201 780.7 723.701ZM904.9 755.401C929.5 700.301 944.5 663.201 965.2 636.201C875.5 598.901 717.9 585.501 613.5 600.001C613.5 621.101 616.6 652.801 603.7 670.901C764 692.101 867.2 711.001 904.9 755.401ZM988.5 648.301C925.2 740.001 910.1 798.901 881.5 918.301C939.3 881.401 978.2 819.301 993.4 784.101C1019.2 713.201 1018.7 666.301 988.5 648.301ZM797.9 726.801C797.9 726.801 767.5 920.201 676.2 938.001C725.5 957.601 791.9 989.701 864.3 927.401C875.9 888.301 878.9 831.801 896.3 785.601C855.7 737.601 797.9 726.801 797.9 726.801Z" stroke="black" stroke-miterlimit="10"/>
<defs>
<radialGradient id="paint0_radial" cx="0" cy="0" r="1" gradientUnits="userSpaceOnUse" gradientTransform="translate(538.001 541.499) scale(526.753 526.753)">
<stop stop-color="#F406E1"/>
<stop offset="0.0976803" stop-color="#F30CE0"/>
<stop offset="0.2237" stop-color="#EE1CDC"/>
<stop offset="0.3654" stop-color="#E736D7"/>
<stop offset="0.5184" stop-color="#DD5BCE"/>
<stop offset="0.6806" stop-color="#D18BC4" stop-opacity="0.8722"/>
<stop offset="0.8477" stop-color="#C2C4B8" stop-opacity="0.9391"/>
<stop offset="1" stop-color="#B2FFAB"/>
</radialGradient>
<radialGradient id="paint1_radial" cx="0" cy="0" r="1" gradientUnits="userSpaceOnUse" gradientTransform="translate(529 566.001) scale(639.069)">
<stop stop-color="#A400AA" stop-opacity="0.6"/>
<stop offset="0.2373" stop-color="#A503AB" stop-opacity="0.6949"/>
<stop offset="0.3793" stop-color="#A70BAE" stop-opacity="0.7517"/>
<stop offset="0.4963" stop-color="#AC19B4" stop-opacity="0.7985"/>
<stop offset="0.5996" stop-color="#B22DBB" stop-opacity="0.8398"/>
<stop offset="0.694" stop-color="#BA48C5" stop-opacity="0.8776"/>
<stop offset="0.7818" stop-color="#C468D1" stop-opacity="0.9127"/>
<stop offset="0.8646" stop-color="#D08EE0" stop-opacity="0.9458"/>
<stop offset="0.9413" stop-color="#DEB9F0" stop-opacity="0.9765"/>
<stop offset="1" stop-color="#EAE0FF"/>
</radialGradient>
</defs>
</svg>
