<svg width="110" height="110" viewBox="0 0 110 110" fill="none" xmlns="http://www.w3.org/2000/svg">
<g clip-path="url(#clip0)">
<path fill-rule="evenodd" clip-rule="evenodd" d="M58.1167 57.1185C59.6444 53.0546 61.987 50.3453 63.9018 50.9361C67.1509 43.9287 75.075 26.1453 76.1037 27.337C77.1731 28.4879 65.2565 46.9944 64.5333 51.3231C65.2157 51.6287 65.6333 52.087 65.9287 52.6981C66.4278 53.7166 81.8787 33.55 84.3639 34.4463C83.8648 37.1148 66.5296 51.0176 66.5704 54.0731C67.2528 56.599 65.2768 59.0537 63.5148 59.95C93.4694 54.8981 107.932 59.6851 108.258 71.4796C108.778 90.3527 89.1916 109.073 67.2018 98.0629C68.7398 104.897 59.5018 110.153 53.35 108.757C45.6093 106.995 39.0704 104.347 41.5963 84.1601C31.5741 100.752 38.388 107.25 29.262 105.702C26.0741 101.363 29.588 95.8731 39.4268 82.7851C39.3963 82.6935 39.325 82.7342 39.2944 82.6324C26.6954 88.4379 -1.87406 84.9444 1.60927 62.924C2.62779 56.4972 7.3639 51.0074 13.0472 50.3963C6.13149 39.3861 3.93149 15.5833 20.6861 3.88051C37.7768 -8.06671 56.9352 23.9148 58.1167 57.1185Z" fill="url(#paint0_radial)" stroke="#E0E0E0" stroke-opacity="0.1" stroke-width="3" stroke-miterlimit="10"/>
<path fill-rule="evenodd" clip-rule="evenodd" d="M42.9407 37.0028C47.0861 45.487 50.7833 56.1 52.5861 63.4231C54.7759 60.6018 55.7944 59.237 56.8435 58.0454C57.75 46.6889 48.4203 24.587 42.187 17.7935C38.9685 20.2685 37.3898 20.5537 34.8027 21.9389C36.2083 24.088 38.9176 28.8241 42.9407 37.0028ZM14.3916 51.7509C9.13608 53.1361 6.06015 57.3629 4.74626 63.5759C3.23886 83.1416 30.9324 84.0074 41.0666 79.862C43.949 76.837 45.0796 74.0259 46.5768 71.2555C34.9352 69.8703 22.275 62.7916 14.3916 51.7509ZM16.3879 50.5185C26.899 68.0166 47.575 69.5648 47.575 69.5648L51.4555 64.3398C51.4555 64.3398 49.1333 53.5842 43.562 42.8287C19.2907 37.6648 18.4555 44.5296 16.3879 50.5185ZM43.0731 41.1481C40.262 35.8518 38.6426 31.1768 33.1833 22.713C24.2509 24.5565 14.3305 24.1491 11.7639 24.0676C10.4092 29.4963 11.0814 43.9083 15.4 48.5222C18.1703 36.9315 31.1361 38.2555 43.0731 41.1481ZM41.1889 16.7241C36.6463 11.3463 30.4129 7.3537 22.5296 9.80832C16.5203 12.263 12.9759 19.0259 12.2629 22.2546C18.8629 22.3259 33.2953 22.9778 41.1889 16.7241ZM53.5842 77.3972C48.0537 80.0861 46.0676 78.65 42.6861 83.5389C42.0648 97.35 43.6944 100.518 46.5666 103.97C56.2629 109.878 67.1713 103.043 64.849 96.4435C62.6694 94.9157 57.4037 90.9944 53.5842 77.3972ZM79.5157 73.7102C75.1157 72.1824 69.2592 70.7768 61.1009 69.412C59.2879 72.1722 58.025 74.7083 54.5926 76.7861C57.8416 88.6111 63.6777 91.7685 67.2426 94.4574C73.4453 92.1657 78.65 82.8259 79.5157 73.7102ZM92.1657 76.9389C94.6713 71.3268 96.199 67.5481 98.3074 64.7981C89.1713 60.9991 73.1194 59.6342 62.4861 61.1111C62.4861 63.2602 62.8018 66.4889 61.4879 68.3324C77.8148 70.4916 88.3259 72.4166 92.1657 76.9389ZM100.681 66.0305C94.2333 75.3703 92.6953 81.3694 89.7824 93.5305C95.6694 89.7722 99.6315 83.4472 101.18 79.862C103.807 72.6407 103.756 67.8639 100.681 66.0305ZM81.2676 74.0259C81.2676 74.0259 78.1713 93.724 68.8722 95.537C73.8935 97.5333 80.6565 100.803 88.0305 94.4574C89.212 90.475 89.5176 84.7203 91.2898 80.0148C87.1546 75.1259 81.2676 74.0259 81.2676 74.0259Z" fill="url(#paint1_radial)"/>
<path d="M42.9407 37.0028C47.0861 45.487 50.7833 56.1 52.5861 63.4231C54.7759 60.6018 55.7944 59.237 56.8435 58.0454C57.75 46.6889 48.4203 24.587 42.187 17.7935C38.9685 20.2685 37.3898 20.5537 34.8027 21.9389C36.2083 24.088 38.9176 28.8241 42.9407 37.0028ZM14.3916 51.7509C9.13608 53.1361 6.06015 57.3629 4.74626 63.5759C3.23886 83.1416 30.9324 84.0074 41.0666 79.862C43.949 76.837 45.0796 74.0259 46.5768 71.2555C34.9352 69.8703 22.275 62.7916 14.3916 51.7509ZM16.3879 50.5185C26.899 68.0166 47.575 69.5648 47.575 69.5648L51.4555 64.3398C51.4555 64.3398 49.1333 53.5842 43.562 42.8287C19.2907 37.6648 18.4555 44.5296 16.3879 50.5185ZM43.0731 41.1481C40.262 35.8518 38.6426 31.1768 33.1833 22.713C24.2509 24.5565 14.3305 24.1491 11.7639 24.0676C10.4092 29.4963 11.0814 43.9083 15.4 48.5222C18.1703 36.9315 31.1361 38.2555 43.0731 41.1481ZM41.1889 16.7241C36.6463 11.3463 30.4129 7.3537 22.5296 9.80832C16.5203 12.263 12.9759 19.0259 12.2629 22.2546C18.8629 22.3259 33.2953 22.9778 41.1889 16.7241ZM53.5842 77.3972C48.0537 80.0861 46.0676 78.65 42.6861 83.5389C42.0648 97.35 43.6944 100.518 46.5666 103.97C56.2629 109.878 67.1713 103.043 64.849 96.4435C62.6694 94.9157 57.4037 90.9944 53.5842 77.3972ZM79.5157 73.7102C75.1157 72.1824 69.2592 70.7768 61.1009 69.412C59.2879 72.1722 58.025 74.7083 54.5926 76.7861C57.8416 88.6111 63.6777 91.7685 67.2426 94.4574C73.4453 92.1657 78.65 82.8259 79.5157 73.7102ZM92.1657 76.9389C94.6713 71.3268 96.199 67.5481 98.3074 64.7981C89.1713 60.9991 73.1194 59.6342 62.4861 61.1111C62.4861 63.2602 62.8018 66.4889 61.4879 68.3324C77.8148 70.4916 88.3259 72.4166 92.1657 76.9389ZM100.681 66.0305C94.2333 75.3703 92.6953 81.3694 89.7824 93.5305C95.6694 89.7722 99.6315 83.4472 101.18 79.862C103.807 72.6407 103.756 67.8639 100.681 66.0305ZM81.2676 74.0259C81.2676 74.0259 78.1713 93.724 68.8722 95.537C73.8935 97.5333 80.6565 100.803 88.0305 94.4574C89.212 90.475 89.5176 84.7203 91.2898 80.0148C87.1546 75.1259 81.2676 74.0259 81.2676 74.0259Z" stroke="#E0E0E0" stroke-opacity="0.1" stroke-width="2" stroke-miterlimit="10"/>
</g>
<defs>
<radialGradient id="paint0_radial" cx="0" cy="0" r="1" gradientUnits="userSpaceOnUse" gradientTransform="translate(54.7963 55.1527) scale(53.6507)">
<stop stop-color="#F406E1" stop-opacity="0.15"/>
<stop offset="0.0976803" stop-color="#F30CE0" stop-opacity="0.11"/>
<stop offset="0.2237" stop-color="#EE1CDC" stop-opacity="0.12"/>
<stop offset="0.3654" stop-color="#E736D7" stop-opacity="0.14"/>
<stop offset="0.5184" stop-color="#DD5BCE" stop-opacity="0.1"/>
<stop offset="0.6806" stop-color="#D18BC4" stop-opacity="0.15"/>
<stop offset="0.8477" stop-color="#C2C4B8" stop-opacity="0.17"/>
<stop offset="1" stop-color="#B2FFAB" stop-opacity="0.26"/>
</radialGradient>
<radialGradient id="paint1_radial" cx="0" cy="0" r="1" gradientUnits="userSpaceOnUse" gradientTransform="translate(53.8796 57.6481) scale(65.0904)">
<stop stop-color="#A400AA" stop-opacity="0.04"/>
<stop offset="0.2373" stop-color="#A503AB" stop-opacity="0.03"/>
<stop offset="0.3793" stop-color="#A70BAE" stop-opacity="0.03"/>
<stop offset="0.4963" stop-color="#AC19B4" stop-opacity="0.04"/>
<stop offset="0.5996" stop-color="#B22DBB" stop-opacity="0.02"/>
<stop offset="0.694" stop-color="#BA48C5" stop-opacity="0.03"/>
<stop offset="0.7818" stop-color="#C468D1" stop-opacity="0.02"/>
<stop offset="0.8646" stop-color="#D08EE0" stop-opacity="0.03"/>
<stop offset="0.9413" stop-color="#DEB9F0" stop-opacity="0.03"/>
<stop offset="1" stop-color="#EAE0FF" stop-opacity="0.06"/>
</radialGradient>
<clipPath id="clip0">
<rect width="110" height="110" fill="white"/>
</clipPath>
</defs>
</svg>
